# xmcd CD database file
# Copyright (C) 1993-1998 Ti Kan
#
# Track frame offsets:
#	150
#	21071
#	37973
#	54305
#	77066
#	84291
#	103515
#	119583
#	136398
#	152303
#	170213
#
# Disc length: 2492 seconds
#
# Revision: 1
# Processed by: cddbd v1.4b41PL1 Copyright (c) Steve Scherf et al.
# Submitted via: EasyCD 2.21 - (C) 1996 Greg Leichner
#
DISCID=7e09ba0b
DTITLE=Wagon - Anniversary
DYEAR=1900
DGENRE=
TTITLE0=Everett
TTITLE1=Trouble found
TTITLE2=Dead man's shoes
TTITLE3=Two hours alone
TTITLE4=Anniversary March
TTITLE5=The Toast
TTITLE6=Slack Key Blues
TTITLE7=Danny Wiggins
TTITLE8=Thieves
TTITLE9=Drive on (alone)
TTITLE10=Corner of Town
EXTD=
EXTT0=
EXTT1=
EXTT2=
EXTT3=
EXTT4=
EXTT5=
EXTT6=
EXTT7=
EXTT8=
EXTT9=
EXTT10=
PLAYORDER=
